<?xml version="1.0" encoding="utf-8"?>
<!-- Generator: Adobe Illustrator 23.0.1, SVG Export Plug-In . SVG Version: 6.00 Build 0)  -->
<svg version="1.1" id="Layer_1" xmlns="http://www.w3.org/2000/svg" xmlns:xlink="http://www.w3.org/1999/xlink" x="0px" y="0px"
	 viewBox="0 0 500 287.5" style="enable-background:new 0 0 500 287.5;" xml:space="preserve">
<style type="text/css">
	.st0{fill:#5F5F5F;}
</style>
<path class="st0" d="M192.7,137.6c-0.1,2.6,0.3,5.2,1,7.8c0.8,2.2,1.7,4.3,2.8,6.3c0.4,0.6,0.6,1.3,0.6,2c-0.1,1.1-0.7,2.1-1.7,2.6
	l-5.5,3.7c-0.7,0.5-1.5,0.8-2.3,0.8c-1-0.1-1.9-0.5-2.6-1.2c-1.2-1.3-2.2-2.6-3.1-4.1c-0.9-1.5-1.7-3.1-2.7-5.2
	c-6.8,8-15.4,12.1-25.7,12.1c-7.3,0-13.2-2.1-17.5-6.3s-6.5-9.8-6.5-16.8c0-7.4,2.6-13.5,8-18s12.4-6.8,21.4-6.8
	c3.1,0,6.2,0.3,9.3,0.7c3.2,0.4,6.6,1.1,10,1.9v-6.4c0-6.6-1.4-11.3-4.1-14s-7.5-4-14.2-4c-3.2,0-6.4,0.4-9.4,1.1
	c-3.2,0.8-6.4,1.8-9.4,3c-1,0.4-2,0.8-3.1,1.1c-0.5,0.1-0.9,0.2-1.4,0.3c-1.2,0-1.8-0.9-1.8-2.7v-4.3c-0.1-1.1,0.1-2.1,0.6-3.1
	c0.7-0.8,1.5-1.4,2.4-1.8c3.5-1.7,7.2-3.1,11-3.9c4.5-1.1,9-1.7,13.6-1.7c10.4,0,18,2.4,22.9,7.1s7.2,11.9,7.2,21.5v28.3H192.7z
	 M157.2,150.8c3.1,0,6.1-0.6,9-1.6c3.2-1.1,6.1-3,8.3-5.6c1.4-1.6,2.4-3.5,3-5.6c0.6-2.5,0.9-5,0.9-7.6v-3.7c-2.6-0.6-5.3-1.1-8-1.5
	c-2.7-0.3-5.5-0.5-8.2-0.5c-5.9,0-10.1,1.1-13,3.5c-2.9,2.4-4.3,5.7-4.3,10.1c0,4.1,1,7.2,3.2,9.3S153.2,150.8,157.2,150.8z
	 M227.4,160.3c-1.2,0.1-2.4-0.2-3.3-0.9c-0.9-0.9-1.5-2.1-1.8-3.4l-20.5-67.5c-0.4-1.1-0.7-2.3-0.8-3.5c-0.1-1,0.6-2,1.6-2.2
	c0.2,0,0.3,0,0.5,0h8.6c1.7,0,2.8,0.3,3.4,0.9s1.2,1.8,1.8,3.4l14.7,57.8L245,87c0.4-1.8,1-2.9,1.7-3.4c1-0.6,2.3-0.9,3.5-0.9h7
	c1.2-0.1,2.5,0.2,3.5,0.9c0.9,0.9,1.5,2.1,1.7,3.4l13.8,58.5L291.2,87c0.3-1.3,0.9-2.4,1.8-3.4c1-0.6,2.2-0.9,3.4-0.9h8.1
	c1.1-0.1,2,0.6,2.2,1.7c0,0.2,0,0.3,0,0.5c0,0.5-0.1,0.9-0.2,1.4c-0.1,0.7-0.3,1.5-0.6,2.2l-21.1,67.5c-0.3,1.3-0.9,2.5-1.8,3.4
	c-1,0.6-2.1,0.9-3.3,0.9h-7.5c-1.2,0.1-2.5-0.2-3.5-0.9c-0.9-0.9-1.5-2.2-1.7-3.5l-13.5-56.4L240,155.9c-0.2,1.3-0.8,2.5-1.7,3.5
	c-1,0.7-2.3,1-3.5,0.9L227.4,160.3z M339.6,162.6c-4.5,0-9-0.5-13.5-1.6c-3.5-0.7-6.9-1.9-10-3.5c-1.1-0.5-2.1-1.4-2.7-2.4
	c-0.3-0.8-0.5-1.6-0.5-2.4v-4.5c0-1.8,0.7-2.7,2-2.7c0.5,0,1.1,0.1,1.6,0.3c0.5,0.2,1.3,0.5,2.2,0.9c3.1,1.4,6.3,2.4,9.6,3.1
	c3.4,0.7,6.9,1,10.4,1.1c5.5,0,9.8-1,12.8-2.9c2.9-1.8,4.6-4.9,4.5-8.3c0.1-2.3-0.8-4.5-2.4-6.1c-1.6-1.7-4.5-3.1-8.8-4.6l-12.7-3.9
	c-6.4-2-11.1-5-14-8.9c-2.8-3.6-4.3-8.1-4.4-12.7c-0.1-3.4,0.7-6.7,2.4-9.7c1.6-2.8,3.7-5.3,6.3-7.2c2.7-2.1,5.8-3.6,9.1-4.6
	c3.6-1,7.3-1.5,11-1.5c2,0,3.9,0.1,5.9,0.3c2,0.3,3.9,0.6,5.7,1s3.4,0.9,5,1.4c1.3,0.4,2.5,0.9,3.7,1.6c1,0.5,1.9,1.3,2.6,2.2
	c0.6,0.9,0.9,1.9,0.8,2.9V94c0,1.8-0.7,2.8-2,2.8c-1.2-0.1-2.3-0.5-3.3-1c-5.3-2.4-11-3.6-16.8-3.5c-5,0-8.9,0.8-11.6,2.4
	c-2.7,1.6-4.3,4.6-4.1,7.8c0,2.3,0.9,4.6,2.6,6.2c1.7,1.7,5,3.3,9.6,4.8l12.4,3.9c6.3,2,10.8,4.8,13.5,8.4c2.7,3.5,4.1,7.8,4,12.2
	c0,3.5-0.7,7-2.3,10.1c-1.5,3-3.7,5.6-6.4,7.7c-2.9,2.2-6.2,3.9-9.7,4.9C348.1,162,343.9,162.6,339.6,162.6L339.6,162.6z"/>
<path class="st0" d="M356.2,205.1c-28.8,21.2-70.5,32.5-106.4,32.5c-50.3,0-95.7-18.6-129.9-49.5c-2.7-2.4-0.3-5.8,3-3.9
	c37.1,21.5,82.7,34.5,130,34.5c34.1-0.2,67.8-7.1,99.2-20.3C356.8,196.3,360.9,201.6,356.2,205.1z"/>
<path class="st0" d="M368.1,191.5c-3.7-4.7-24.3-2.3-33.6-1.1c-2.8,0.4-3.2-2.1-0.7-3.9c16.4-11.5,43.4-8.2,46.6-4.4
	s-0.9,30.9-16.2,43.9c-2.4,2-4.6,1-3.6-1.7C364,215.6,371.8,196.1,368.1,191.5z"/>
</svg>
