<?xml version="1.0" encoding="utf-8"?>
<!-- Generator: Adobe Illustrator 23.0.1, SVG Export Plug-In . SVG Version: 6.00 Build 0)  -->
<svg version="1.1" id="Layer_1" xmlns="http://www.w3.org/2000/svg" xmlns:xlink="http://www.w3.org/1999/xlink" x="0px" y="0px"
	 viewBox="0 0 500 287.5" style="enable-background:new 0 0 500 287.5;" xml:space="preserve">
<style type="text/css">
	.st0{fill:#5F5F5F;}
</style>
<title>Artboard 1 copy 2</title>
<rect x="284.6" y="125.9" class="st0" width="7.4" height="49.2"/>
<path class="st0" d="M147.4,147.8v7.2h16.9c-0.3,3.3-1.6,6.3-3.9,8.8c-7.4,7.1-19.1,6.9-26.3-0.3c-7.2-7.4-7.2-19.2,0-26.6
	c3.4-3.7,8.2-5.7,13.2-5.6c4.8-0.1,9.4,1.7,12.8,5.1l5-5.1c-4.7-4.7-11.1-7.3-17.8-7.2c-7-0.1-13.7,2.8-18.6,7.8
	c-10.1,9.8-10.4,26-0.6,36.1c0.2,0.2,0.4,0.4,0.6,0.6c4.9,5,11.6,7.7,18.6,7.6c6.8,0.2,13.4-2.4,18.1-7.3c4.2-4.5,6.5-10.5,6.2-16.6
	c0-1.5,0-2.9-0.3-4.4L147.4,147.8z"/>
<path class="st0" d="M325.7,153.2c-0.4-1.2-1-2.3-1.7-3.3c-0.8-1.2-1.8-2.4-2.8-3.4c-1.2-1.2-2.7-2.2-4.3-2.8
	c-1.8-0.7-3.7-1.1-5.6-1.1c-4.2-0.1-8.3,1.6-11.3,4.7c-3.1,3.2-4.7,7.5-4.6,12c-0.1,4.5,1.6,8.8,4.8,11.9c3.1,3.2,7.4,4.9,11.8,4.8
	c3,0.1,5.9-0.8,8.5-2.4c2.1-1.3,4-3.1,5.4-5.1l-5.6-3.8c-1.7,2.9-4.9,4.7-8.2,4.6c-3.5,0.1-6.7-1.9-8.1-5.1l22.5-9.2L325.7,153.2z
	 M302.7,158.9c-0.2-2.7,0.8-5.3,2.7-7.1c1.6-1.6,3.7-2.6,6-2.7c1.4,0,2.7,0.3,3.9,1c1.1,0.6,1.9,1.5,2.3,2.6L302.7,158.9z"/>
<path class="st0" d="M279.5,143.7h-7v2.7h-0.3c-1-1.1-2.3-2.1-3.6-2.7c-1.6-0.8-3.4-1.2-5.2-1.2c-4.3,0-8.4,1.8-11.3,4.9
	c-6.4,6.6-6.4,17.1,0,23.7c2.9,3.1,7,4.9,11.3,4.9c3.4,0.2,6.6-1.2,8.8-3.8h0.3v2.4c0.2,2.7-0.6,5.3-2.4,7.3
	c-1.7,1.8-4.1,2.7-6.5,2.5c-1.9,0.1-3.8-0.6-5.3-1.8c-1.4-1.1-2.5-2.6-3.2-4.2l-6.4,2.7c1.2,2.7,3.1,5.1,5.5,6.9c2.7,2,6,3.1,9.4,3
	c4.3,0.1,8.4-1.4,11.5-4.4c3.2-3.6,4.8-8.3,4.5-13.1L279.5,143.7z M270.5,166.7c-1.6,1.8-3.9,2.9-6.4,2.8c-2.5,0-4.9-1-6.6-2.9
	c-1.9-1.9-2.9-4.5-2.8-7.2c-0.1-2.7,1-5.3,2.8-7.3c1.7-1.8,4.1-2.9,6.6-2.8c2.4-0.1,4.8,1,6.4,2.8c1.7,2,2.7,4.7,2.6,7.3
	C273.1,162.2,272.2,164.7,270.5,166.7z"/>
<path class="st0" d="M202.9,147.4c-6.7-6.4-17.2-6.4-23.8,0c-6.5,6.6-6.5,17.3,0,23.9c6.7,6.4,17.2,6.4,23.8,0l0,0
	C209.4,164.7,209.4,154.1,202.9,147.4z M197.6,166.6c-3.4,3.7-9.2,3.9-12.9,0.4c-0.1-0.1-0.3-0.3-0.4-0.4l0,0
	c-3.8-4.1-3.8-10.4,0-14.6c3.5-3.7,9.4-3.8,13.1-0.3c0.1,0.1,0.2,0.2,0.3,0.3C201.4,156.2,201.4,162.5,197.6,166.6L197.6,166.6z"/>
<path class="st0" d="M215.7,147.4c-6.5,6.7-6.5,17.3,0,23.9c6.7,6.4,17.2,6.4,23.8,0c6.5-6.7,6.5-17.3,0-23.9
	C232.8,141,222.3,141,215.7,147.4z M234.2,166.6c-3.4,3.7-9.2,3.9-12.9,0.4c-0.1-0.1-0.3-0.3-0.4-0.4l0,0c-3.8-4.1-3.8-10.4,0-14.6
	c3.5-3.7,9.4-3.8,13.1-0.3c0.1,0.1,0.2,0.2,0.3,0.3C238.1,156.2,238.1,162.5,234.2,166.6L234.2,166.6z"/>
<path class="st0" d="M365,170.5c-4.7,0.1-9.2-1.7-12.5-5c-6.8-7.4-6.8-18.8,0-26.2c3.3-3.3,7.8-5.1,12.5-5c4.9-0.2,9.5,1.9,12.6,5.7
	l4.1-3.9c-4.1-4.9-10.3-7.6-16.7-7.4c-13.1-0.3-23.9,10.1-24.2,23.2c-0.3,13.1,10.1,23.9,23.2,24.2c0.3,0,0.6,0,1,0
	c3.6,0.1,7.1-0.7,10.4-2.2c3-1.4,5.7-3.4,7.8-5.9l-4-4C375.6,168.2,370.5,170.6,365,170.5z"/>
<rect x="388.2" y="129.7" class="st0" width="5.8" height="45.5"/>
<path class="st0" d="M403.5,147.8c-6,6.7-6,16.9,0,23.6c6.1,6.3,16.3,6.5,22.6,0.4c3.3-3.2,5-7.6,4.9-12.2c0.1-4.4-1.5-8.6-4.5-11.8
	C420.1,141.4,409.9,141.4,403.5,147.8z M422.1,167.8c-3.7,3.9-9.9,4.1-13.9,0.4c-0.1-0.1-0.3-0.2-0.4-0.4l0,0c-4-4.7-4-11.6,0-16.3
	c3.7-3.9,9.9-4.1,13.9-0.4c0.1,0.1,0.3,0.2,0.4,0.4C426.1,156.2,426.1,163.1,422.1,167.8L422.1,167.8z"/>
<path class="st0" d="M457.5,161.3c0,2.4-0.8,4.8-2.3,6.7c-1.4,1.8-3.6,2.9-5.9,2.8c-5.1,0-7.7-2.9-7.7-8.7V144h-5.8v19.1
	c-0.2,3.4,0.9,6.8,3,9.5c2.3,2.5,5.5,3.8,8.8,3.6c2,0,4-0.5,5.8-1.6c1.7-0.9,3.1-2.2,4.1-3.9h0.2v4.3h5.6V144h-5.8L457.5,161.3z"/>
<path class="st0" d="M493.6,129.7V144l0.2,4.3h-0.2c-1-1.6-2.5-2.9-4.2-3.8c-2-1-4.1-1.6-6.4-1.5c-4,0-7.8,1.7-10.4,4.8
	c-5.8,6.8-5.8,16.8,0,23.6c2.6,3,6.4,4.8,10.4,4.8c2.2,0,4.4-0.5,6.3-1.5c1.7-0.9,3.2-2.2,4.2-3.8h0.3v4.3h5.6v-45.4H493.6z
	 M491,167.8c-3.6,3.9-9.7,4.1-13.6,0.4c-0.2-0.2-0.3-0.3-0.5-0.5c-3.8-4.8-3.8-11.5,0-16.3c3.5-3.9,9.5-4.2,13.4-0.6
	c0.2,0.2,0.4,0.4,0.6,0.6C494.8,156.2,494.8,163,491,167.8z"/>
<path class="st0" d="M60.2,133.8h0.3l-0.2-0.1l11.2-11.2v-0.2c-15.1-13.3-38.1-11.9-51.4,3.2c-3.7,4.2-6.4,9.2-7.8,14.6
	c0.2-0.1,0.4-0.1,0.6-0.2c5.7-3.8,12.7-5.2,19.5-3.9c0.1,0,0.2-0.1,0.2-0.1C39.8,128,51.9,127.1,60.2,133.8L60.2,133.8z"/>
<path class="st0" d="M82.6,140.1c-1.9-6.9-5.7-13-11-17.7l-11.4,11.4c4.8,3.9,7.5,9.8,7.4,16v2c13.5,0,13.5,20.2,0,20.2H47.5l0,0
	V188h-0.1l0.1,0.1h20.2c14.5,0.1,26.4-11.5,26.6-26.1C94.3,153.2,90,144.9,82.6,140.1L82.6,140.1z"/>
<path class="st0" d="M27.2,188.1h20.2v-16.2H27.2c-1.4,0-2.8-0.3-4.1-0.9l-11.7,11.7v0.1C15.9,186.2,21.5,188.1,27.2,188.1
	L27.2,188.1z"/>
<path class="st0" d="M27.2,135.5C12.7,135.6,1,147.4,1,162c0,8.1,3.8,15.8,10.3,20.7L23.1,171c-5.1-2.3-7.3-8.3-5-13.4
	s8.3-7.3,13.4-5c2.2,1,4,2.8,5,5l11.7-11.7C43.2,139.3,35.4,135.5,27.2,135.5L27.2,135.5z"/>
</svg>
