<?xml version="1.0" encoding="utf-8"?>
<!-- Generator: Adobe Illustrator 23.0.1, SVG Export Plug-In . SVG Version: 6.00 Build 0)  -->
<svg version="1.1" id="Layer_1" xmlns="http://www.w3.org/2000/svg" xmlns:xlink="http://www.w3.org/1999/xlink" x="0px" y="0px"
	 viewBox="0 0 500 287.5" style="enable-background:new 0 0 500 287.5;" xml:space="preserve">
<style type="text/css">
	.st0{fill:#5F5F5F;}
</style>
<path class="st0" d="M447.7,135.8H434v31.8h-9.3v-31.8h-6.5v-7.6h6.5v-5.5c-0.1-3.8,1.3-7.5,4-10.2c2.7-2.7,6.4-4.1,10.3-4
	c1,0,2,0,3,0.2c0.8,0.1,1.5,0.3,2.3,0.5v8c-0.5-0.3-1-0.5-1.6-0.7c-0.8-0.3-1.7-0.4-2.6-0.4c-1.7-0.1-3.3,0.6-4.4,1.8
	c-1.2,1.6-1.7,3.5-1.6,5.4v4.8h13.7v-8.8l9.2-2.8v11.7h9.3v7.6h-9.3v18.4c0,2.4,0.4,4.1,1.3,5.1c1.1,1.1,2.6,1.6,4.1,1.5
	c0.7,0,1.3-0.2,1.9-0.4c0.7-0.2,1.3-0.5,2-0.9v7.7c-0.9,0.4-1.9,0.8-2.9,0.9c-1.3,0.3-2.7,0.4-4,0.4c-3.9,0-6.8-1-8.7-3.1
	c-1.9-2.1-2.9-5.2-2.9-9.4L447.7,135.8z M386.8,148.2c0,4.1,0.9,7.2,2.8,9.4c1.9,2.2,4.5,3.3,7.9,3.3s5.9-1.1,7.6-3.3
	s2.6-5.4,2.6-9.6s-0.9-7.4-2.7-9.6c-1.9-2.2-4.7-3.4-7.6-3.2c-3-0.2-5.9,1.1-7.8,3.4C387.7,140.8,386.8,144,386.8,148.2
	 M377.2,148.5c0-6.5,1.8-11.7,5.5-15.5c3.6-3.8,8.7-5.7,15.2-5.7c6.1,0,10.8,1.8,14.3,5.5s5.1,8.6,5.1,14.9c0,6.4-1.8,11.5-5.5,15.2
	c-3.6,3.8-8.6,5.7-14.8,5.7c-6,0-10.8-1.8-14.4-5.4S377.3,154.7,377.2,148.5 M356.6,138.6c-0.1,1.2,0.4,2.3,1.2,3.1
	c1.7,1.2,3.6,2.2,5.5,2.9c3.7,1.5,6.2,3.1,7.7,5c1.5,1.9,2.3,4.3,2.2,6.7c0.1,3.5-1.5,6.8-4.2,8.9c-2.8,2.3-6.6,3.4-11.4,3.4
	c-1.8,0-3.6-0.2-5.4-0.6c-1.7-0.3-3.4-0.8-5-1.5v-9.1c1.7,1.2,3.5,2.1,5.4,2.8c1.7,0.6,3.4,1,5.2,1c1.6,0.1,3.2-0.2,4.6-0.9
	c1-0.6,1.6-1.8,1.5-2.9c0-1.3-0.6-2.5-1.5-3.2c-1.8-1.3-3.7-2.3-5.8-3c-3.4-1.4-5.8-3-7.2-4.8c-1.5-2-2.2-4.4-2.1-6.8
	c-0.1-3.4,1.5-6.7,4.2-8.8c2.8-2.3,6.4-3.4,10.9-3.4c1.5,0,3.1,0.2,4.6,0.5c1.5,0.2,2.9,0.6,4.2,1.2v8.8c-1.3-0.9-2.8-1.6-4.2-2.1
	c-1.5-0.6-3.2-0.9-4.8-0.9c-1.4-0.1-2.9,0.3-4.1,1C357.1,136.4,356.6,137.4,356.6,138.6 M312.5,148.2c0,4.1,0.9,7.2,2.8,9.4
	c1.8,2.2,4.5,3.3,7.9,3.3s5.9-1.1,7.6-3.3s2.6-5.4,2.6-9.6s-0.9-7.4-2.7-9.6c-1.9-2.2-4.7-3.4-7.6-3.2c-3-0.2-5.9,1.1-7.8,3.4
	C313.4,140.8,312.5,144,312.5,148.2 M302.9,148.5c0-6.5,1.8-11.7,5.5-15.5c3.6-3.8,8.7-5.7,15.2-5.7c6.1,0,10.9,1.8,14.3,5.5
	s5.1,8.6,5.1,14.9c0,6.4-1.8,11.5-5.5,15.2s-8.6,5.7-14.9,5.7c-6,0-10.8-1.8-14.4-5.4S302.9,154.7,302.9,148.5 M299,127.6
	c0.7,0,1.3,0,2,0.2c0.5,0.1,1,0.2,1.5,0.4v9.4c-0.7-0.4-1.4-0.8-2.1-1c-1.1-0.3-2.2-0.5-3.4-0.5c-2.2,0-4.4,1.1-5.7,2.9
	c-1.6,1.9-2.3,4.9-2.3,8.9v19.9h-9.2v-39.4h9.2v6.2h0.1c0.7-2,2.1-3.7,3.8-5C294.7,128.2,296.9,127.6,299,127.6 M263.9,160.9
	c1.6-0.1,3.1-0.4,4.5-1c1.6-0.6,3.2-1.5,4.5-2.5v8.6c-1.6,0.9-3.2,1.5-5,1.9c-2,0.4-4.1,0.7-6.1,0.6c-5.7,0-10.4-1.8-14-5.5
	c-3.6-3.7-5.6-8.8-5.4-14c0-6.3,1.8-11.6,5.5-15.6c3.7-4.1,8.9-6.1,15.6-6.2c1.8,0,3.5,0.2,5.2,0.7c1.5,0.3,2.9,0.9,4.2,1.5v8.9
	c-1.3-1-2.8-1.8-4.3-2.4c-1.4-0.6-3-0.9-4.5-0.9c-3.3-0.1-6.5,1.2-8.8,3.6c-2.2,2.4-3.3,5.6-3.3,9.6s1.1,7.1,3.2,9.3
	C257.4,159.9,260.6,161.1,263.9,160.9 M236,167.6h-9.2v-39.4h9.2V167.6z M225.9,116.9c0-1.5,0.6-2.9,1.6-3.8c1.1-1,2.5-1.6,3.9-1.6
	c1.5,0,2.9,0.5,4,1.6c1,1,1.6,2.4,1.6,3.8c0,1.4-0.6,2.8-1.6,3.8c-1.1,1-2.5,1.6-4,1.5c-1.5,0-2.9-0.5-4-1.6
	C226.4,119.7,225.8,118.3,225.9,116.9 M217.9,112.7v54.9h-9.4v-43h-0.1l-16.9,43.1h-6.2l-17.3-43h-0.1v43.1h-8.7v-55h13.5l15.6,40.7
	h0.2l16.5-40.7H217.9z"/>
<rect x="41.3" y="94.4" class="st0" width="43.1" height="43.5"/>
<rect x="88.9" y="94.4" class="st0" width="43.1" height="43.5"/>
<rect x="41.3" y="142.4" class="st0" width="43.1" height="43.5"/>
<rect x="88.9" y="142.4" class="st0" width="43.1" height="43.5"/>
</svg>
