<?xml version="1.0" encoding="utf-8"?>
<!-- Generator: Adobe Illustrator 23.0.1, SVG Export Plug-In . SVG Version: 6.00 Build 0)  -->
<svg version="1.1" id="Layer_1" xmlns="http://www.w3.org/2000/svg" xmlns:xlink="http://www.w3.org/1999/xlink" x="0px" y="0px"
	 viewBox="0 0 500 287.5" style="enable-background:new 0 0 500 287.5;" xml:space="preserve">
<style type="text/css">
	.st0{fill:#5F5F5F;}
</style>
<title>Artboard 1 copy 4</title>
<path class="st0" d="M301.3,124.3c-2.2-0.2-4.4,0.9-5.6,2.7c-1.2,1.8-1.8,4.5-1.8,7.8s0.6,6,1.8,7.9c1.2,1.9,3.4,2.9,5.6,2.8
	c2.2,0.2,4.4-0.9,5.6-2.8c1.2-1.9,1.9-4.5,1.9-7.9s-0.6-6-1.9-7.8C305.7,125.2,303.5,124.2,301.3,124.3z"/>
<path class="st0" d="M222.7,124.2c-2.2-0.1-4.4,1-5.6,2.8c-0.8,1.4-1.4,3-1.6,4.6h13.9c0-1.6-0.5-3.2-1.3-4.6
	C227,125.2,224.9,124.1,222.7,124.2z"/>
<path class="st0" d="M173.3,137c-1.2,0.9-1.9,2.3-1.7,3.8c-0.1,0.9,0.2,1.8,0.6,2.6c0.3,0.5,0.7,0.9,1.1,1.2c0,0,1.8,1.4,5.7,1.1
	c1.8-0.1,3.5-0.3,5.3-0.7V136c-1.8-0.3-3.5-0.4-5.3-0.4C175,135.5,173.3,137,173.3,137z"/>
<path class="st0" d="M379.2,124.2c-2.2-0.1-4.4,1-5.6,2.8c-0.8,1.4-1.4,3-1.6,4.6H386c0-1.6-0.5-3.2-1.3-4.6
	C383.5,125.2,381.4,124.1,379.2,124.2z"/>
<path class="st0" d="M354,56c-10.1,0-20.2,2.1-29.4,6.2c-10.5-18.9-30.4-30.7-52-30.8c-16.2,0-31.6,6.6-42.8,18.3
	c-21.9-28.8-63-34.3-91.8-12.4c-23.9,18.2-32.4,50.5-20.4,78.1c-17.5,10.3-28.2,29-28.2,49.3c0,31.4,25.2,56.9,56.3,56.9
	c3.9,0,7.8-0.4,11.6-1.2c11.6,31.4,46.4,47.5,77.9,36c15.7-5.8,28.3-17.8,34.9-33.2c25.3,12.3,55.9,2.7,69.6-21.9
	c4.7,1,9.5,1.4,14.3,1.4c40.1,0,72.7-32.8,72.7-73.3S394.2,56,354,56z M161.7,141.2c0,5.9-4.3,9.6-11.2,9.6c-3.5,0.1-7-0.7-10.1-2.4
	c-0.6-0.4-1.3-0.7-1.9-1.2c-0.1-0.1-0.4-0.2-0.1-0.8l1.4-3.8c0.1-0.3,0.4-0.5,0.7-0.4c0.1,0,0.2,0.1,0.3,0.1
	c0.4,0.2,0.6,0.4,1.1,0.7c2.7,1.7,5.8,2.6,8.9,2.6c3,0,4.9-1.6,4.9-3.7v-0.1c0-2.3-2.9-3.2-6.2-4.2l-0.7-0.2c-4.6-1.3-9.4-3.2-9.4-9
	v-0.1c0-5.5,4.4-9.3,10.8-9.3h0.7c3.5,0,6.9,0.9,9.9,2.7c0.3,0.1,0.4,0.5,0.3,0.8l-1.4,3.8c-0.2,0.7-0.9,0.2-0.9,0.2
	c-2.7-1.4-5.7-2.2-8.8-2.2c-2.7,0-4.4,1.4-4.4,3.4v0.1c0,2.3,3,3.2,6.4,4.3l0.6,0.2c4.6,1.4,9.4,3.4,9.4,8.9L161.7,141.2z
	 M190,148.9c0,0-0.7,0.2-1.4,0.3s-3,0.6-4.9,1c-2,0.3-3.9,0.5-5.9,0.5c-1.7,0-3.5-0.2-5.2-0.5c-1.4-0.3-2.8-0.9-4-1.7
	c-1.1-0.8-2-1.8-2.6-3.1c-0.6-1.4-0.9-2.9-0.9-4.5c-0.1-3.1,1.4-6,3.9-7.7c1.2-0.9,2.6-1.5,4.1-1.9c1.6-0.4,3.2-0.6,4.8-0.6
	c1.2,0,2.2,0,3.1,0.1c0,0,1.5,0.1,3.2,0.4v-0.8c0-2.6-0.5-3.8-1.6-4.7c-1.4-0.9-3.1-1.4-4.8-1.3c-2.9,0-5.9,0.7-8.5,2
	c-0.1,0.1-0.2,0.1-0.3,0.2c-0.3,0.1-0.5,0-0.6-0.3c0,0,0,0,0,0l-1.3-3.8c-0.1-0.3-0.1-0.6,0.2-0.8c1.8-1.4,6-2.2,6-2.2
	c1.7-0.3,3.5-0.5,5.2-0.5c3.9,0,6.9,0.9,9,2.7s3.1,4.7,3.1,8.6v17.9C190.5,148.5,190.3,148.8,190,148.9L190,148.9z M203.2,149.4
	c0,0.3-0.2,0.6-0.5,0.6c0,0,0,0,0,0h-5.2c-0.3,0-0.6-0.3-0.6-0.6c0,0,0,0,0,0v-41.7c0-0.3,0.2-0.6,0.5-0.6c0,0,0,0,0,0h5.2
	c0.3,0,0.6,0.2,0.6,0.6c0,0,0,0,0,0V149.4z M235.5,136c0,0.3-0.3,0.5-0.6,0.5h-19.5c0.1,3,0.8,5.1,2.3,6.5c1.8,1.6,4.2,2.5,6.7,2.3
	c2.7,0.1,5.5-0.4,8-1.4c0.3-0.1,0.6,0,0.7,0.3c0,0,0,0,0,0l1.3,3.6c0.2,0.6,0.1,0.8-0.2,0.9c-1.2,0.7-4.2,1.9-9.8,1.9
	c-2.4,0.1-4.8-0.3-7.1-1.1c-3.7-1.4-6.6-4.4-7.8-8.2c-0.6-2-0.9-4.1-0.9-6.2c0-2.1,0.3-4.2,0.9-6.2c0.5-1.9,1.4-3.6,2.6-5.1
	c1.2-1.5,2.8-2.6,4.5-3.4c2-0.9,4.2-1.3,6.5-1.2c1.9,0,3.8,0.4,5.6,1.1c1.4,0.7,2.7,1.6,3.7,2.8c1.1,1.3,2,2.9,2.5,4.6
	C235.7,130.3,235.9,133.2,235.5,136z M251.8,150.8c-3.5,0.1-7-0.7-10.1-2.4c-0.6-0.4-1.3-0.7-1.9-1.2c-0.1-0.1-0.4-0.2-0.1-0.8
	l1.4-3.8c0.1-0.3,0.4-0.5,0.7-0.4c0.1,0,0.1,0,0.2,0.1c0.4,0.2,0.6,0.4,1.1,0.7c2.7,1.7,5.8,2.6,8.9,2.6c3,0,4.9-1.6,4.9-3.7v-0.1
	c0-2.3-2.9-3.2-6.2-4.2l-0.7-0.2c-4.6-1.3-9.4-3.2-9.4-9v-0.1c0-5.5,4.4-9.3,10.8-9.3h0.7c3.5,0,6.9,0.9,9.9,2.7
	c0.3,0.1,0.4,0.5,0.3,0.8l-1.4,3.8c-0.2,0.7-0.9,0.2-0.9,0.2c-2.7-1.4-5.7-2.2-8.8-2.2c-2.7,0-4.4,1.4-4.4,3.4v0.1
	c0,2.3,3,3.2,6.4,4.3l0.6,0.2c4.5,1.4,9.4,3.4,9.4,8.9v0.1C263,147.1,258.7,150.8,251.8,150.8L251.8,150.8z M285.9,124.3
	c0,0.3-0.3,0.6-0.6,0.6h-6.4l-4.4,24.9c-0.4,2.2-1,4.4-1.7,6.6c-0.6,1.6-1.4,3.1-2.5,4.4c-1,1.1-2.2,2-3.6,2.5
	c-1.5,0.5-3.2,0.8-4.8,0.8c-1,0-1.9-0.1-2.9-0.3c-0.6-0.1-1.2-0.3-1.8-0.5c-0.3-0.1-0.4-0.5-0.3-0.8c0,0,0,0,0,0
	c0.1-0.4,1.3-3.6,1.5-4c0.1-0.3,0.4-0.4,0.7-0.3c0.3,0.2,0.7,0.3,1.1,0.3c0.5,0.1,1,0.2,1.6,0.2c0.8,0,1.6-0.1,2.3-0.3
	c0.7-0.3,1.4-0.7,1.8-1.4c0.6-0.8,1-1.8,1.3-2.7c0.5-1.6,0.9-3.2,1.2-4.8l4.4-24.5h-4.3c-0.5,0-0.7-0.2-0.6-0.6l0.7-4.1
	c0-0.3,0.3-0.6,0.7-0.6h4.4l0.2-1.3c0.7-3.9,2-6.9,3.9-8.9s4.8-3,8.3-3c0.9,0,1.8,0.1,2.7,0.2c0.7,0.1,1.3,0.3,1.9,0.4
	c0.3,0.1,0.5,0.4,0.4,0.7c0,0,0,0,0,0l-1.5,4.1c-0.1,0.3-0.2,0.5-0.9,0.3c-0.2,0-0.4-0.1-1-0.2c-0.5-0.1-1.1-0.2-1.6-0.2
	c-0.7,0-1.4,0.1-2.1,0.3c-0.6,0.2-1.2,0.5-1.6,1c-0.6,0.6-1.1,1.3-1.4,2.1c-0.5,1.4-0.8,2.9-1,4.4h6.2c0.5,0,0.7,0.2,0.6,0.6
	L285.9,124.3z M314.5,141.1c-0.5,1.8-1.4,3.5-2.6,5c-1.2,1.4-2.7,2.6-4.4,3.4c-4,1.6-8.4,1.6-12.4,0c-1.7-0.8-3.2-1.9-4.4-3.4
	c-1.2-1.5-2.1-3.2-2.6-5c-1.1-4.1-1.1-8.4,0-12.4c0.5-1.8,1.4-3.5,2.6-5c1.2-1.4,2.7-2.6,4.4-3.4c4-1.7,8.4-1.7,12.4,0
	c1.7,0.8,3.2,1.9,4.4,3.4c1.2,1.5,2.1,3.2,2.6,5C315.7,132.7,315.7,137,314.5,141.1L314.5,141.1z M338.7,120.7
	c-0.2,0.5-1.1,3.2-1.5,4.1c-0.1,0.3-0.3,0.6-0.7,0.5c-0.7-0.2-1.4-0.3-2.1-0.3c-0.9,0-1.8,0.1-2.6,0.4c-0.9,0.3-1.7,0.8-2.4,1.4
	c-0.8,0.8-1.4,1.8-1.7,2.9c-0.5,1.7-0.7,3.4-0.6,5.1v14.6c0,0.3-0.2,0.6-0.6,0.6c0,0,0,0,0,0h-5.1c-0.3,0-0.6-0.3-0.6-0.6
	c0,0,0,0,0,0v-29.1c0-0.3,0.2-0.6,0.5-0.6c0,0,0,0,0,0h5c0.3,0,0.6,0.2,0.6,0.6c0,0,0,0,0,0v2.4c0.9-1.1,2-1.9,3.3-2.4
	c1.6-0.7,3.3-1,5-0.8c1.1,0.1,2.2,0.3,3.3,0.6C338.6,120,338.8,120.3,338.7,120.7C338.7,120.6,338.7,120.7,338.7,120.7L338.7,120.7z
	 M363.1,149.2c-2.6,1-5.4,1.5-8.2,1.4c-5,0-8.8-1.4-11.4-4.3s-3.8-6.7-3.8-11.5c0-2.1,0.3-4.2,0.9-6.2c0.6-1.8,1.5-3.5,2.8-5
	c1.3-1.4,2.9-2.6,4.6-3.4c2-0.9,4.2-1.3,6.4-1.2c1.4,0,2.9,0.1,4.3,0.3c1.3,0.2,2.6,0.6,3.9,1c0.3,0.1,0.4,0.4,0.4,0.6c0,0,0,0,0,0
	c-0.5,1.5-0.9,2.5-1.4,4c-0.2,0.6-0.7,0.4-0.7,0.4c-2-0.6-4-0.9-6.1-0.9c-2.5-0.2-4.9,0.9-6.4,2.8c-1.6,2.2-2.3,4.9-2.2,7.6
	c0,3.6,0.9,6.2,2.5,7.9c1.8,1.7,4.2,2.6,6.6,2.5c1.1,0,2.1-0.1,3.2-0.2c0.9-0.2,1.8-0.4,2.7-0.8c0.3-0.1,0.6,0,0.7,0.3
	c0,0,0,0,0,0.1l1.4,3.9C363.4,148.8,363.3,149.1,363.1,149.2L363.1,149.2z M392.1,136c0,0.3-0.3,0.5-0.6,0.5H372
	c0.1,3,0.8,5.1,2.3,6.5c1.8,1.6,4.2,2.5,6.7,2.3c2.7,0.1,5.5-0.4,8-1.4c0.3-0.1,0.6,0,0.7,0.3c0,0,0,0,0,0l1.3,3.6
	c0.2,0.6,0,0.8-0.2,0.9c-1.2,0.7-4.2,1.9-9.8,1.9c-2.4,0.1-4.8-0.3-7.1-1.1c-3.7-1.4-6.6-4.4-7.8-8.2c-0.6-2-0.9-4.1-0.9-6.2
	c0-2.1,0.3-4.2,0.9-6.2c0.5-1.9,1.4-3.6,2.6-5.1c1.2-1.5,2.8-2.6,4.5-3.4c2-0.9,4.2-1.3,6.5-1.2c1.9,0,3.8,0.4,5.6,1.1
	c1.4,0.7,2.7,1.6,3.7,2.8c1.1,1.3,2,2.9,2.5,4.6C392.3,130.3,392.5,133.2,392.1,136z"/>
</svg>
