<?xml version="1.0" encoding="utf-8"?>
<!-- Generator: Adobe Illustrator 23.0.1, SVG Export Plug-In . SVG Version: 6.00 Build 0)  -->
<svg version="1.1" id="Layer_1" xmlns="http://www.w3.org/2000/svg" xmlns:xlink="http://www.w3.org/1999/xlink" x="0px" y="0px"
	 viewBox="0 0 500 287.5" style="enable-background:new 0 0 500 287.5;" xml:space="preserve">
<style type="text/css">
	.st0{fill:#5F5F5F;}
	.st1{fill-rule:evenodd;clip-rule:evenodd;fill:#5F5F5F;}
</style>
<title>Artboard 1 copy</title>
<polygon class="st0" points="69.9,145.5 56.4,145.5 56.4,130.9 51.2,130.9 51.2,145.5 37.7,145.5 37.7,150.7 51.2,150.7 51.2,165.3 
	56.4,165.3 56.4,150.7 69.9,150.7 "/>
<polygon class="st0" points="42.8,169.4 30.8,169.4 30.8,156.3 26.2,156.3 26.2,169.4 14.2,169.4 14.2,173.4 26.2,173.4 26.2,186.4 
	30.8,186.4 30.8,173.4 42.8,173.4 "/>
<polygon class="st0" points="93.4,122.5 81.4,122.5 81.4,109.4 76.8,109.4 76.8,122.5 64.8,122.5 64.8,126.5 76.8,126.5 76.8,139.6 
	81.4,139.6 81.4,126.5 93.4,126.5 "/>
<polygon class="st0" points="64,183.9 55.8,183.9 55.8,174.8 51.9,174.8 51.9,183.9 43.8,183.9 43.8,187.4 51.9,187.4 51.9,196.6 
	55.8,196.6 55.8,187.4 64,187.4 "/>
<polygon class="st0" points="42.8,122.5 30.6,122.5 30.6,109.4 26.4,109.4 26.4,122.5 14.2,122.5 14.2,126.4 26.4,126.4 26.4,139.6 
	30.6,139.6 30.6,126.4 42.8,126.4 "/>
<polygon class="st0" points="102.7,146.3 94.5,146.3 94.5,137.2 90.6,137.2 90.6,146.3 82.4,146.3 82.4,149.9 90.6,149.9 90.6,159 
	94.5,159 94.5,149.9 102.7,149.9 "/>
<polygon class="st1" points="93.4,169.4 81.4,169.4 81.4,156.3 76.8,156.3 76.8,169.4 64.8,169.4 64.8,173.4 76.8,173.4 76.8,186.4 
	81.4,186.4 81.4,173.4 93.4,173.4 "/>
<polygon class="st0" points="52.4,100 52.4,109 44.3,109 44.3,111.7 52.4,111.7 52.4,120.7 55.3,120.7 55.3,111.7 63.4,111.7 
	63.4,109 55.3,109 55.3,100 "/>
<polygon class="st0" points="23.9,146.7 15.8,146.7 15.8,137.9 12.9,137.9 12.9,146.7 4.8,146.7 4.8,149.5 12.9,149.4 12.9,158.3 
	15.8,158.3 15.8,149.4 23.9,149.4 "/>
<path class="st1" d="M265.1,140.6c2.5-1,5.1-1.6,7.8-1.6c9,0,15.1,6.4,15.1,16.3c0,10.3-6.4,16.4-17.7,16.4c-4-0.1-8-0.8-11.8-2.1
	l-0.2-45.7h6.8V140.6z M271.1,165.4c6.3,0,9.9-3.6,9.9-10.1s-3.6-10.2-9.3-10.2c-2.3,0.1-4.5,0.6-6.5,1.6v17.4
	C267,165,269,165.4,271.1,165.4"/>
<rect x="316.2" y="117.4" class="st0" width="6.7" height="59.9"/>
<path class="st1" d="M359.9,151.7h15.4c-0.2-4.1-2.4-6.2-6.3-6.5C364.8,145,361,147.7,359.9,151.7 M367.5,171.7
	c-10.3-1-15.3-8.2-15-16.8c0.3-9.3,6.3-15.9,15.5-15.9c9.6,0,15.2,7.1,14.7,17.6h-23.2c0.6,5.8,4,8.6,8.8,8.9
	c4,0.3,9.6-0.6,12.6-2.5v6.4C376.7,171.4,372.1,172.2,367.5,171.7"/>
<path class="st1" d="M481.9,166.5c4.2,0,7.1-2.2,7.1-7v-19.8h6.8v20.7c0,6.9-5.4,11.1-13.9,11.1s-13.9-4.2-13.9-11.1v-20.7h6.8v19.8
	C474.8,164.3,477.6,166.4,481.9,166.5"/>
<path class="st1" d="M213.8,171.6c-11.3,0-17.7-6-17.7-16.4c0-10,6.1-16.3,15.1-16.3c2.8-0.1,5.5,0.7,7.8,2.1v-2.3h6.8l-0.2,30.7
	C221.9,170.9,217.9,171.6,213.8,171.6 M213.1,165.4c2,0,3.9-0.3,5.8-0.7l0.1-17.3c-1.9-1.4-4.2-2.2-6.5-2.2c-5.7,0-9.3,3.8-9.3,10.2
	S206.8,165.5,213.1,165.4"/>
<path class="st1" d="M427.5,171.6c-11.3,0-17.7-6-17.7-16.4c0-10,6.1-16.3,15.1-16.3c2.8-0.1,5.5,0.7,7.8,2.1v-2.3h6.8l-0.2,30.7
	C435.6,170.9,431.6,171.6,427.5,171.6 M426.9,165.4c2,0,3.9-0.3,5.8-0.7l0.1-17.3c-1.9-1.4-4.2-2.2-6.5-2.2c-5.7,0-9.3,3.8-9.3,10.2
	S420.5,165.4,426.9,165.4"/>
<polygon class="st0" points="145.8,126 152.4,126 152.4,145 170.5,145 170.5,151.2 152.4,151.2 152.4,171.9 145.8,171.9 
	145.8,151.2 127.7,151.2 127.7,145 145.8,145 "/>
</svg>
